<?xml version="1.0" standalone="no"?>
<!DOCTYPE svg PUBLIC "-//W3C//DTD SVG 1.1//EN" "http://www.w3.org/Graphics/SVG/1.1/DTD/svg11.dtd" >
<!--
2013-9-30: Created.
-->
<svg>
<metadata>
Created by iconfont
</metadata>
<defs>

<font id="iconfont" horiz-adv-x="1024" >
  <font-face
    font-family="iconfont"
    font-weight="500"
    font-stretch="normal"
    units-per-em="1024"
    ascent="896"
    descent="-128"
  />
    <missing-glyph />
    
    <glyph glyph-name="geren" unicode="&#58891;" d="M710.8 272.1c-8.7-11.5-6.5-28 4.8-36.9 83.9-65.3 132-164.4 132-271.7 0-14.5 11.7-26.4 26-26.4s26 11.8 26 26.4c0 124-55.5 238.3-152.4 313.5-11 8.7-28 6.4-36.4-4.9M150.9-62.8c14.3 0 26 11.8 26 26.4 0 188.4 150.5 341.7 335.4 341.7 142.5 0 258.3 117.9 258.3 262.9 0 145-115.9 263-258.3 263-142.5 0-258.4-118-258.4-263 0-96 52.6-185 135.2-230.8-156.3-53.5-264.3-205.1-264.3-373.8 0.1-14.6 11.7-26.4 26.1-26.4m361.3 841.1c113.8 0 206.3-94.3 206.3-210.1 0.1-116-92.5-210.2-206.3-210.2C398.5 358 306 452.3 306 568.2c0.1 115.8 92.6 210.1 206.2 210.1m0 0z"  horiz-adv-x="1024" />

    
    <glyph glyph-name="geren1" unicode="&#59049;" d="M870.4-128h-721.454545c-25.6 0-46.545455 20.945455-46.545455 46.545455v209.454545c0 114.036364 76.8 216.436364 186.181818 246.690909l11.636364 2.327273 9.309091-6.981818c58.181818-41.890909 128-62.836364 200.145454-62.836364 72.145455 0 141.963636 20.945455 200.145455 62.836364l9.309091 6.981818 11.636363-2.327273c111.709091-30.254545 190.836364-132.654545 190.836364-249.018182v-209.454545c-4.654545-23.272727-25.6-44.218182-51.2-44.218182z m-579.490909 456.145455c-83.781818-27.927273-141.963636-109.381818-141.963636-200.145455v-209.454545h721.454545v209.454545c0 90.763636-58.181818 172.218182-144.290909 200.145455-65.163636-44.218182-139.636364-65.163636-218.763636-65.163637-76.8 0-151.272727 23.272727-216.436364 65.163637zM502.690909 425.890909c-130.327273 0-235.054545 104.727273-235.054545 235.054546s104.727273 235.054545 235.054545 235.054545 235.054545-104.727273 235.054546-235.054545c2.327273-128-104.727273-235.054545-235.054546-235.054546z m0 423.563636c-104.727273 0-188.509091-83.781818-188.509091-188.50909s83.781818-188.509091 188.509091-188.509091 188.509091 83.781818 188.509091 188.509091-83.781818 188.509091-188.509091 188.50909z"  horiz-adv-x="1024" />

    
    <glyph glyph-name="order" unicode="&#58892;" d="M864 832l-704 0C142.336 832 128 817.664 128 800l0-832C128-49.66399999999999 142.336-64 160-64l704 0c17.664 0 32 14.336 32 32l0 832C896 817.664 881.664 832 864 832zM832 0L192 0 192 768l640 0L832 0zM353.92 576c17.6 0 32 14.336 32 32S371.584 640 353.92 640L353.28 640C335.616 640 321.6 625.664 321.6 608S336.256 576 353.92 576zM353.92 384c17.6 0 32 14.336 32 32S371.584 448 353.92 448L353.28 448C335.616 448 321.6 433.664 321.6 416S336.256 384 353.92 384zM353.92 192c17.6 0 32 14.336 32 32S371.584 256 353.92 256L353.28 256c-17.6 0-31.616-14.336-31.616-32S336.256 192 353.92 192zM480 576l192 0C689.664 576 704 590.336 704 608S689.664 640 672 640l-192 0C462.336 640 448 625.664 448 608S462.336 576 480 576zM480 384l192 0C689.664 384 704 398.336 704 416S689.664 448 672 448l-192 0C462.336 448 448 433.664 448 416S462.336 384 480 384zM480 192l192 0c17.664 0 32 14.336 32 32S689.664 256 672 256l-192 0C462.336 256 448 241.664 448 224S462.336 192 480 192z"  horiz-adv-x="1024" />

    
    <glyph glyph-name="xuanzhongshangcheng" unicode="&#58893;" d="M971.6736 450.7648L594.8416 842.6496a122.2656 122.2656 0 0 1-176.5376 0L41.5744 450.7648c-38.912-40.96-33.8944-75.4688-27.5456-90.0096a65.536 65.536 0 0 1 64.6144-38.912h55.296v-301.4656c0-68.4032 49.152-133.12 119.0912-133.12h160.3584V206.5408c0 34.2016-5.12 53.248 29.7984 53.248h126.7712c35.0208 0 29.7984-19.0464 29.7984-53.248v-319.0784h160.4608c69.8368 0 119.0912 64.512 119.0912 133.12V321.8432h55.1936a65.536 65.536 0 0 1 64.6144 38.912c6.4512 14.5408 11.4688 49.5616-27.4432 90.0096z"  horiz-adv-x="1024" />

    
    <glyph glyph-name="check_circle" unicode="&#58887;" d="M21.333333 896v-1024M42.666667 896v-1024M64 896v-1024M85.333333 896v-1024M106.666667 896v-1024M128 896v-1024M149.333333 896v-1024M170.666667 896v-1024M192 896v-1024M213.333333 896v-1024M234.666667 896v-1024M256 896v-1024M277.333333 896v-1024M298.666667 896v-1024M320 896v-1024M341.333333 896v-1024M362.666667 896v-1024M384 896v-1024M405.333333 896v-1024M426.666667 896v-1024M448 896v-1024M469.333333 896v-1024M490.666667 896v-1024M512 896v-1024M533.333333 896v-1024M554.666667 896v-1024M576 896v-1024M597.333333 896v-1024M618.666667 896v-1024M640 896v-1024M661.333333 896v-1024M682.666667 896v-1024M704 896v-1024M725.333333 896v-1024M746.666667 896v-1024M768 896v-1024M789.333333 896v-1024M810.666667 896v-1024M832 896v-1024M853.333333 896v-1024M874.666667 896v-1024M896 896v-1024M917.333333 896v-1024M938.666667 896v-1024M960 896v-1024M981.333333 896v-1024M1002.666667 896v-1024M0 874.666667h1024M0 853.333333h1024M0 832h1024M0 810.666667h1024M0 789.333333h1024M0 768h1024M0 746.666667h1024M0 725.333333h1024M0 704h1024M0 682.666667h1024M0 661.333333h1024M0 640h1024M0 618.666667h1024M0 597.333333h1024M0 576h1024M0 554.666667h1024M0 533.333333h1024M0 512h1024M0 490.666667h1024M0 469.333333h1024M0 448h1024M0 426.666667h1024M0 405.333333h1024M0 384h1024M0 362.666667h1024M0 341.333333h1024M0 320h1024M0 298.666667h1024M0 277.333333h1024M0 256h1024M0 234.666667h1024M0 213.333333h1024M0 192h1024M0 170.666667h1024M0 149.333333h1024M0 128h1024M0 106.666667h1024M0 85.333333h1024M0 64h1024M0 42.666667h1024M0 21.333333h1024M0 0h1024M0-21.333333h1024M0-42.666667h1024M0-64h1024M0-85.333333h1024M0-106.666667h1024M426 170l384 384-60 62-324-324-152 152-60-60z m86 640q176 0 301-125T938 384t-125-301T512-42t-301 125T86 384t125 301T512 810z"  horiz-adv-x="1024" />

    
    <glyph glyph-name="favorite" unicode="&#58882;" d="M21.333333 896v-1024M42.666667 896v-1024M64 896v-1024M85.333333 896v-1024M106.666667 896v-1024M128 896v-1024M149.333333 896v-1024M170.666667 896v-1024M192 896v-1024M213.333333 896v-1024M234.666667 896v-1024M256 896v-1024M277.333333 896v-1024M298.666667 896v-1024M320 896v-1024M341.333333 896v-1024M362.666667 896v-1024M384 896v-1024M405.333333 896v-1024M426.666667 896v-1024M448 896v-1024M469.333333 896v-1024M490.666667 896v-1024M512 896v-1024M533.333333 896v-1024M554.666667 896v-1024M576 896v-1024M597.333333 896v-1024M618.666667 896v-1024M640 896v-1024M661.333333 896v-1024M682.666667 896v-1024M704 896v-1024M725.333333 896v-1024M746.666667 896v-1024M768 896v-1024M789.333333 896v-1024M810.666667 896v-1024M832 896v-1024M853.333333 896v-1024M874.666667 896v-1024M896 896v-1024M917.333333 896v-1024M938.666667 896v-1024M960 896v-1024M981.333333 896v-1024M1002.666667 896v-1024M0 874.666667h1024M0 853.333333h1024M0 832h1024M0 810.666667h1024M0 789.333333h1024M0 768h1024M0 746.666667h1024M0 725.333333h1024M0 704h1024M0 682.666667h1024M0 661.333333h1024M0 640h1024M0 618.666667h1024M0 597.333333h1024M0 576h1024M0 554.666667h1024M0 533.333333h1024M0 512h1024M0 490.666667h1024M0 469.333333h1024M0 448h1024M0 426.666667h1024M0 405.333333h1024M0 384h1024M0 362.666667h1024M0 341.333333h1024M0 320h1024M0 298.666667h1024M0 277.333333h1024M0 256h1024M0 234.666667h1024M0 213.333333h1024M0 192h1024M0 170.666667h1024M0 149.333333h1024M0 128h1024M0 106.666667h1024M0 85.333333h1024M0 64h1024M0 42.666667h1024M0 21.333333h1024M0 0h1024M0-21.333333h1024M0-42.666667h1024M0-64h1024M0-85.333333h1024M0-106.666667h1024M512-14l-62 56c-220 200-364 330-364 492C86 666 188 768 320 768c74 0 146-36 192-90C558 732 630 768 704 768c132 0 234-102 234-234 0-162-144-294-364-494z"  horiz-adv-x="1024" />

    
    <glyph glyph-name="remove_circle_outlin" unicode="&#58883;" d="M21.333333 896v-1024M42.666667 896v-1024M64 896v-1024M85.333333 896v-1024M106.666667 896v-1024M128 896v-1024M149.333333 896v-1024M170.666667 896v-1024M192 896v-1024M213.333333 896v-1024M234.666667 896v-1024M256 896v-1024M277.333333 896v-1024M298.666667 896v-1024M320 896v-1024M341.333333 896v-1024M362.666667 896v-1024M384 896v-1024M405.333333 896v-1024M426.666667 896v-1024M448 896v-1024M469.333333 896v-1024M490.666667 896v-1024M512 896v-1024M533.333333 896v-1024M554.666667 896v-1024M576 896v-1024M597.333333 896v-1024M618.666667 896v-1024M640 896v-1024M661.333333 896v-1024M682.666667 896v-1024M704 896v-1024M725.333333 896v-1024M746.666667 896v-1024M768 896v-1024M789.333333 896v-1024M810.666667 896v-1024M832 896v-1024M853.333333 896v-1024M874.666667 896v-1024M896 896v-1024M917.333333 896v-1024M938.666667 896v-1024M960 896v-1024M981.333333 896v-1024M1002.666667 896v-1024M0 874.666667h1024M0 853.333333h1024M0 832h1024M0 810.666667h1024M0 789.333333h1024M0 768h1024M0 746.666667h1024M0 725.333333h1024M0 704h1024M0 682.666667h1024M0 661.333333h1024M0 640h1024M0 618.666667h1024M0 597.333333h1024M0 576h1024M0 554.666667h1024M0 533.333333h1024M0 512h1024M0 490.666667h1024M0 469.333333h1024M0 448h1024M0 426.666667h1024M0 405.333333h1024M0 384h1024M0 362.666667h1024M0 341.333333h1024M0 320h1024M0 298.666667h1024M0 277.333333h1024M0 256h1024M0 234.666667h1024M0 213.333333h1024M0 192h1024M0 170.666667h1024M0 149.333333h1024M0 128h1024M0 106.666667h1024M0 85.333333h1024M0 64h1024M0 42.666667h1024M0 21.333333h1024M0 0h1024M0-21.333333h1024M0-42.666667h1024M0-64h1024M0-85.333333h1024M0-106.666667h1024M512 42q140 0 241 101T854 384t-101 241T512 726t-241-101T170 384t101-241T512 42z m0 768q176 0 301-125T938 384t-125-301T512-42t-301 125T86 384t125 301T512 810z m-214-384h428v-84h-428v84z"  horiz-adv-x="1024" />

    
    <glyph glyph-name="icon_dingdan" unicode="&#58888;" d="M399.252587 719.1641h194.900652c22.580172 0 41.590154 22.581195 41.590154 48.725418S616.734434 816.614937 592.965562 816.614937H399.252587c-23.766825 0-42.780899-22.581195-42.780899-48.725419s19.012028-48.725419 42.780899-48.725418zM803.310098 789.282014h-55.855569c-3.066885 0-6.224815-0.380547-9.31932-1.101746a94.024887 94.024887 0 0 0 7.826797-37.646578c0-52.131932-42.26225-94.394182-94.394182-94.394182H341.477914c-52.132955 0-94.394182 42.26225-94.394182 94.394182a94.006474 94.006474 0 0 0 8.324987 38.748324h-67.688343C109.282589 789.282014 76.007193 740.556595 76.007193 676.382178V40.584567c0-68.926146 41.594246-117.648496 117.650541-117.648495h603.707844c76.062434 0 117.656679 40.408615 117.65668 117.648495V676.382178c0 64.174418-39.21787 112.899836-111.71216 112.899836z m-97.447768-602.522214H286.352751c-15.44593 0-28.518553 13.069554-28.518553 28.519577 0 15.451045 13.072623 28.524691 28.518553 28.524691h418.320879c15.451045 0 28.524691-11.88597 29.712368-28.524691 0-15.448999-13.074669-28.519576-28.523668-28.519577z m0 167.56466H286.352751c-15.44593 0-28.518553 13.072623-28.518553 28.519576 0 15.450022 13.072623 28.522645 28.518553 28.522645h418.320879c15.451045 0 28.524691-11.88597 29.712368-28.522645 0-15.446953-13.074669-28.519576-28.523668-28.519576z m0 154.494081H286.352751c-15.44593 0-28.518553 13.069554-28.518553 28.519577 0 15.450022 13.072623 28.524691 28.518553 28.524691h419.509579c15.448999 0 28.523668-13.074669 28.523668-28.524691 0-15.448999-13.074669-28.519576-28.523668-28.519577z"  horiz-adv-x="1024" />

    
    <glyph glyph-name="arrow-right" unicode="&#58884;" d="M274.211971-91.92449999999997a34.954221 34.954221 0 0 0-24.857587 10.332154c-13.742072 13.808632-13.742072 36.14206 0 49.919973l431.462163 433.714961-431.462163 433.679122c-13.742072 13.813752-13.742072 36.14718 0 49.919972a35.005421 35.005421 0 0 0 49.715173 0L755.353466 427.007695c13.736952-13.813752 13.736952-36.14718 0-49.919973l-456.294149-458.674948a35.010541 35.010541 0 0 0-24.852466-10.332154z"  horiz-adv-x="1024" />

    
    <glyph glyph-name="arrow-left-mine-copy" unicode="&#58880;" d="M769.799779 827.195549L388.949268 380.756299l380.647593-441.94305-77.538954-66.813249-437.856687 508.346463L691.954948 893.599961z"  horiz-adv-x="1024" />

    
    <glyph glyph-name="xuanxiangguan" unicode="&#58933;" d="M512 896h853.333c282.774 0 512-229.227 512-512s-229.226-512-512-512H512C229.227-128 0 101.227 0 384S229.227 896 512 896z m0-960c247.424 0 448 200.576 448 448S759.424 832 512 832 64 631.424 64 384s200.576-448 448-448z"  horiz-adv-x="1878" />

    
    <glyph glyph-name="hbp_icon_thumb_down" unicode="&#59103;" d="M894.293333 267.946667H634.88c102.4-382.293333-68.266667-395.946667-68.266667-395.946667-81.92 0-61.44 61.44-68.266666 68.266667 0 184.32-197.973333 327.68-197.973334 327.68V793.6c0 54.613333 68.266667 68.266667 95.573334 68.266667h395.946666c34.133333 0 68.266667-95.573333 68.266667-95.573334C955.733333 431.786667 955.733333 329.386667 955.733333 329.386667c6.826667-61.44-61.44-61.44-61.44-61.44zM61.44 261.12c-34.133333 0-34.133333 34.133333-34.133333 34.133333L61.44 827.733333c0 34.133333 34.133333 34.133333 34.133333 34.133334h136.533334c27.306667 0 27.306667-20.48 27.306666-20.48v-539.306667c0-40.96-40.96-40.96-40.96-40.96H61.44z"  horiz-adv-x="1024" />

    
    <glyph glyph-name="hbp_icon_thumb_up" unicode="&#59104;" d="M894.293333 500.053333H634.88C737.28 882.346667 566.613333 896 566.613333 896c-81.92 0-61.44-61.44-68.266666-68.266667 0-184.32-197.973333-327.68-197.973334-327.68v-525.653333c0-54.613333 68.266667-68.266667 95.573334-68.266667h395.946666c34.133333 0 68.266667 95.573333 68.266667 95.573334C955.733333 336.213333 955.733333 438.613333 955.733333 438.613333c6.826667 61.44-61.44 61.44-61.44 61.44zM54.613333 506.88c-34.133333 0-34.133333-34.133333-34.133333-34.133333L54.613333-59.733333c0-34.133333 34.133333-34.133333 34.133334-34.133334h136.533333c27.306667 0 27.306667 20.48 27.306667 20.48V465.92c0 40.96-40.96 40.96-40.96 40.96H54.613333z"  horiz-adv-x="1024" />

    
    <glyph glyph-name="icon-person" unicode="&#59394;" d="M1113.043478-42.918957c0-34.771478-13.913043-83.478261-76.532869-83.47826H76.53287C13.913043-126.397217 0-77.690435 0-42.918957c0 118.272 104.358957 285.228522 292.173913 285.228522 0 0 55.652174-90.445913 264.347826-90.445913s264.347826 90.445913 264.347826 90.445913c187.814957 0 292.173913-166.956522 292.173913-285.228522zM562.598957 896C723.812174 896 854.594783 749.901913 854.594783 569.700174c0-180.224-130.671304-326.299826-291.973566-326.299826-161.302261 0-291.951304 146.075826-291.951304 326.299826C270.647652 749.901913 401.408 896 562.598957 896z"  horiz-adv-x="1113" />

    
    <glyph glyph-name="icon-shoppingCar" unicode="&#59003;" d="M357.44 129.6q18.24 0 34.56-6.72t28.8-18.72 19.2-28.32 6.72-34.56-6.72-34.56-19.2-28.32-28.8-19.2-34.56-7.2q-19.2 0-35.04 7.2t-28.32 19.2-19.2 28.32-6.72 34.56 6.72 34.56 19.2 28.32 28.32 18.72 35.04 6.72z m399.36-1.92q18.24 0 35.04-6.72t28.8-18.72 19.2-28.32 7.2-34.56-7.2-34.56-19.2-28.32-28.8-19.2-35.04-7.2-34.56 7.2-28.32 19.2-19.2 28.32-7.2 34.56 7.2 34.56 19.2 28.32 28.32 18.72 34.56 6.72z m161.28 545.28q26.88 0 41.76-7.2T980.96 648t5.76-22.56-3.36-20.64-12-35.52-20.64-59.04-22.56-63.84-16.8-49.92q-12.48-38.4-31.68-53.28t-47.04-14.88h-504l14.4-86.4h483.84q46.08 0 46.08-39.36 0-19.2-9.12-33.12t-36-13.92H324.8q-19.2 0-32.16 8.64t-21.6 22.56-13.92 30.24-8.16 30.72q-0.96 5.76-5.28 27.84t-10.56 55.2-13.92 73.92-15.36 82.08q-18.24 96.96-41.28 216h-72q-14.4 0-24 7.2T50.72 727.2t-8.64 21.6-2.4 21.12q0 19.2 12.96 31.68t35.04 12.48h96.96q19.2 0 30.72-5.76t18.24-14.4 9.6-18.24 4.8-16.32q1.92-7.68 3.84-21.6t3.84-28.32q2.88-17.28 5.76-36.48h656.64z"  horiz-adv-x="1024" />

    
    <glyph glyph-name="icon_fengxiang" unicode="&#58894;" d="M117.420377 698.734311h275.336696a39.337262 39.337262 0 0 1 0 78.674525 35.293696 35.293696 0 0 1-3.536611-0.712151H117.89112A117.987647 117.987647 0 0 1 0.000036 658.612476v-668.528266a117.987647 117.987647 0 0 1 117.891084-118.08421h865.624971a117.987647 117.987647 0 0 1 117.891084 118.08421v393.976142h-0.627658a39.337262 39.337262 0 0 1-78.674525 0v-393.348484a39.349333 39.349333 0 0 0-39.385544-39.337263H117.420377a39.349333 39.349333 0 0 0-39.337263 39.337263v668.697251a39.349333 39.349333 0 0 0 39.337263 39.325192zM939.821433 884.472818a39.328813 39.328813 0 1 1-55.620161-55.620161l82.995709-82.995709C693.031108 718.553821 471.697146 515.083974 415.726945 250.357113a38.938941 38.938941 0 0 1-3.934934-16.524306 39.349333 39.349333 0 0 1 39.337263-39.337263c18.998727 0 34.098732 13.723985 37.804328 31.660522h0.784573c45.625914 233.174973 238.449715 413.324909 477.756424 440.386628l-83.285398-83.285398a39.328813 39.328813 0 1 1 55.620161-55.620161L1090.435229 678.238861a39.288981 39.288981 0 0 1 0 55.620161z"  horiz-adv-x="1101" />

    
    <glyph glyph-name="icon_add_circlex" unicode="&#58881;" d="M512 832C264.704 832 64 631.296 64 384s200.704-448 448-448 448 200.704 448 448S759.296 832 512 832z m224-492.8H556.8V160h-89.6V339.2H288v89.6h179.2V608h89.6v-179.2H736v-89.6z"  horiz-adv-x="1024" />

    
    <glyph glyph-name="icon-close" unicode="&#58886;" d="M1024 792.502857L920.502857 896 512 487.497143 103.497143 896 0 792.502857 408.502857 384 0-24.502857 103.497143-128 512 280.502857 920.502857-128 1024-24.502857 615.497143 384z"  horiz-adv-x="1024" />

    
    <glyph glyph-name="icon-person-fill" unicode="&#59459;" d="M512 384c140.8 0 256 115.2 256 256s-115.2 256-256 256-256-115.2-256-256 115.2-256 256-256z m179.2-64h-32c-44.8-19.2-92.8-32-147.2-32s-102.4 12.8-147.2 32h-32C185.6 320 64 198.4 64 51.2V-32c0-54.4 41.6-96 96-96h704c54.4 0 96 41.6 96 96v83.2c0 147.2-121.6 268.8-268.8 268.8z"  horiz-adv-x="1024" />

    
    <glyph glyph-name="icon_sousuo" unicode="&#58885;" d="M494.207797 0.248368c83.271124 0 161.123302 22.578938 227.956959 61.775975l-6.863997 6.863997c-18.243782 19.688834-17.701887 50.215558 1.445052 69.181866 18.966308 18.966308 49.673664 19.327571 69.181866 1.083789l16.79873-16.79873c86.522491 81.284177 140.350679 196.346446 140.350679 324.05292 0 246.562004-201.042865 446.159817-448.869289 446.159816C246.200741 892.38737 45.157876 692.789557 45.157876 446.227553c0-246.381372 201.042865-445.979185 449.049921-445.979185z m0 809.229141c202.126654 0 365.778797-162.748986 365.778797-363.069324 0-200.50097-163.832775-363.069324-365.778797-363.069325S128.067737 245.907215 128.067737 446.227553c0 200.50097 163.832775 363.249956 366.14006 363.249956zM716.745811 138.070206c-18.966308-18.966308-19.688834-49.493032-1.445052-69.181866l6.863997-6.863997 170.51614-171.419298c12.282942-13.366731 31.068619-18.966308 48.770506-14.45052s31.429882 18.243782 36.126301 35.765038c4.515788 17.701887-0.903158 36.306932-14.089257 48.770506l-160.581408 161.484565-16.79873 16.79873c-19.869466 18.424413-50.39619 17.882519-69.362497-0.903158z"  horiz-adv-x="1024" />

    
    <glyph glyph-name="iconarrowarrow_black_" unicode="&#58937;" d="M647.570286 99.547429a36.571429 36.571429 0 0 0-51.712-51.712l-310.308572 310.308571a36.571429 36.571429 0 0 0 0 51.712l310.308572 310.308571a36.571429 36.571429 0 0 0 51.712-51.712L363.154286 384l284.452571-284.452571z"  horiz-adv-x="1024" />

    
    <glyph glyph-name="icon_close" unicode="&#59345;" d="M512 896C230.4 896 0 665.6 0 384s230.4-512 512-512 512 230.4 512 512S793.6 896 512 896z m204.8-669.8c12.8-12.8 12.8-34.2 0-47-4.2-4.2-12.8-8.6-21.4-8.6-8.6 0-17 4.2-21.4 8.6L512 337 354.2 179.2c-8.6-4.2-17-8.6-25.6-8.6-8.6 0-17 4.2-21.4 8.6-12.8 12.8-12.8 34.2 0 47L465 384 307.2 541.8c-12.8 12.8-12.8 34.2 0 47s34.2 12.8 47 0L512 431l157.8 157.8c12.8 12.8 34.2 12.8 47 0 12.8-12.8 12.8-34.2 0-47L559 384l157.8-157.8z"  horiz-adv-x="1024" />

    
    <glyph glyph-name="icon-remove" unicode="&#58968;" d="M512 768.04c-212.093 0-384.04-171.947-384.04-384.04 0-212.093 171.947-384.04 384.04-384.04S896.04 171.907 896.04 384c0 212.093-171.97 384.04-384.04 384.04z m205.094-429.2h-410.21v90.32h410.21v-90.32z"  horiz-adv-x="1024" />

    
    <glyph glyph-name="icon-arrow-left" unicode="&#58889;" d="M769.8 827.196l-380.85-446.44 380.647-441.943-77.54-66.813-437.856 508.346L691.955 893.6z"  horiz-adv-x="1024" />

    
    <glyph glyph-name="back" unicode="&#58890;" d="M767.302 874.062c-12.125 12.116-31.737 12.155-43.98-0.089L254.753 405.406c-12.165-12.165-12.244-31.81 0-44.056l468.567-468.624c12.165-12.166 31.771-12.292 43.98-0.09 12.126 12.115 12.164 31.73-0.026 43.92L320.48 383.38 767.275 830.143c12.14 12.14 12.236 31.718 0.027 43.919z"  horiz-adv-x="1024" />

    


  </font>
</defs>
</svg>
